{"asset":{"version":"2.0","generator":"THREE.GLTFExporter"},"scenes":[{"nodes":[0],"name":"AuxScene"}],"scene":0,"nodes":[{"mesh":0}],"bufferViews":[{"buffer":0,"byteOffset":0,"byteLength":10512,"target":34962,"byteStride":12},{"buffer":0,"byteOffset":10512,"byteLength":10512,"target":34962,"byteStride":12}],"buffers":[{"byteLength":21024,"uri":"data:application/octet-stream;base64,"}],"accessors":[{"bufferView":0,"componentType":5126,"count":876,"max":[99.50001525878906,4.347760200500488,99.50001525878906],"min":[-99.4000015258789,1.147760033607483,-99.4000015258789],"type":"VEC3"},{"bufferView":1,"componentType":5126,"count":876,"max":[0.06753408163785934,1,0.05627838522195816],"min":[-0.594176709651947,0.8021368384361267,-0.05941786617040634],"type":"VEC3"}],"materials":[{"pbrMetallicRoughness":{"baseColorFactor":[0.5019607843137255,0.5019607843137255,0.5019607843137255,1],"metallicFactor":0,"roughnessFactor":1}}],"meshes":[{"primitives":[{"mode":4,"attributes":{"POSITION":0,"NORMAL":1},"material":0}]}]}